<svg id="Слой_1" data-name="Слой 1" xmlns="http://www.w3.org/2000/svg" viewBox="0 0 71.97 71.97"><defs><style>.cls-1{fill:none;stroke:#000;stroke-linecap:round;stroke-linejoin:round;stroke-width:1.97px}</style></defs><path class="cls-1" d="M79.58 45.87a30 30 0 0 0-59.7 4 31 31 0 0 0 .29 4.23 30 30 0 0 0 25.47 25.49 29.42 29.42 0 0 0 4.22.3 30 30 0 0 0 29.69-25.76 29.46 29.46 0 0 0 .3-4.23 29.87 29.87 0 0 0-.27-4.03ZM53.89 60.21a11 11 0 0 1-8.25 0 11 11 0 1 1 8.25 0Z" transform="translate(-13.78 -14.02)"/><path class="cls-1" d="M49.76 15a35 35 0 1 0 35 35 35 35 0 0 0-35-35Zm4.13 64.62a29.76 29.76 0 0 1-4 .27 29.42 29.42 0 0 1-4.22-.3 30 30 0 0 1-25.5-25.46 31 31 0 0 1-.29-4.23 30 30 0 1 1 60 0 29.46 29.46 0 0 1-.3 4.23 30 30 0 0 1-25.69 25.49Z" transform="translate(-13.78 -14.02)"/><path class="cls-1" d="M79.58 45.87a30 30 0 0 0-59.7 4 31 31 0 0 0 .29 4.23 30 30 0 0 0 25.47 25.49 29.42 29.42 0 0 0 4.22.3 30 30 0 0 0 29.69-25.76 29.46 29.46 0 0 0 .3-4.23 29.87 29.87 0 0 0-.27-4.03ZM53.89 60.21a11 11 0 0 1-8.25 0 11 11 0 1 1 8.25 0Z" transform="translate(-13.78 -14.02)"/><path class="cls-1" d="M60.78 50a11 11 0 0 1-6.89 10.21 11 11 0 0 1-8.25 0A11 11 0 1 1 60.78 50Z" transform="translate(-13.78 -14.02)"/><path class="cls-1" d="M38.75 50a11.13 11.13 0 0 0 .8 4.13H20.17a31 31 0 0 1-.29-4.23 29.87 29.87 0 0 1 .27-4h19.4a11.13 11.13 0 0 0-.8 4.1ZM79.85 49.9a29.46 29.46 0 0 1-.3 4.23H60a11.06 11.06 0 0 0 0-8.26h19.6a29.87 29.87 0 0 1 .25 4.03ZM53.89 60.21v19.41a29.76 29.76 0 0 1-4 .27 29.42 29.42 0 0 1-4.22-.3V60.21a11 11 0 0 0 8.25 0Z" transform="translate(-13.78 -14.02)"/></svg>