<svg id="Слой_1" data-name="Слой 1" xmlns="http://www.w3.org/2000/svg" viewBox="0 0 71.97 71.97"><defs><style>.cls-1{fill:none;stroke:#000;stroke-linecap:round;stroke-linejoin:round;stroke-width:1.97px;}</style></defs><path class="cls-1" d="M79.58,45.87a30,30,0,0,0-59.7,4,31,31,0,0,0,.29,4.23A30,30,0,0,0,45.64,79.59a29.42,29.42,0,0,0,4.22.3A30,30,0,0,0,79.55,54.13a29.46,29.46,0,0,0,.3-4.23A29.87,29.87,0,0,0,79.58,45.87ZM53.89,60.21a11,11,0,0,1-8.25,0,11,11,0,1,1,8.25,0Z" transform="translate(-13.78 -14.02)"/><path class="cls-1" d="M49.76,15a35,35,0,1,0,35,35A35,35,0,0,0,49.76,15Zm4.13,64.62a29.76,29.76,0,0,1-4,.27,29.42,29.42,0,0,1-4.22-.3A30,30,0,0,1,20.17,54.13a31,31,0,0,1-.29-4.23,30,30,0,1,1,60,0,29.46,29.46,0,0,1-.3,4.23A30,30,0,0,1,53.89,79.62Z" transform="translate(-13.78 -14.02)"/><path class="cls-1" d="M79.58,45.87a30,30,0,0,0-59.7,4,31,31,0,0,0,.29,4.23A30,30,0,0,0,45.64,79.59a29.42,29.42,0,0,0,4.22.3A30,30,0,0,0,79.55,54.13a29.46,29.46,0,0,0,.3-4.23A29.87,29.87,0,0,0,79.58,45.87ZM53.89,60.21a11,11,0,0,1-8.25,0,11,11,0,1,1,8.25,0Z" transform="translate(-13.78 -14.02)"/><path class="cls-1" d="M60.78,50a11,11,0,0,1-6.89,10.21,11,11,0,0,1-8.25,0A11,11,0,1,1,60.78,50Z" transform="translate(-13.78 -14.02)"/><path class="cls-1" d="M38.75,50a11.13,11.13,0,0,0,.8,4.13H20.17a31,31,0,0,1-.29-4.23,29.87,29.87,0,0,1,.27-4h19.4A11.13,11.13,0,0,0,38.75,50Z" transform="translate(-13.78 -14.02)"/><path class="cls-1" d="M79.85,49.9a29.46,29.46,0,0,1-.3,4.23H60a11.06,11.06,0,0,0,0-8.26h19.6A29.87,29.87,0,0,1,79.85,49.9Z" transform="translate(-13.78 -14.02)"/><path class="cls-1" d="M53.89,60.21V79.62a29.76,29.76,0,0,1-4,.27,29.42,29.42,0,0,1-4.22-.3V60.21a11,11,0,0,0,8.25,0Z" transform="translate(-13.78 -14.02)"/></svg>