<svg id="Слой_1" data-name="Слой 1" xmlns="http://www.w3.org/2000/svg" viewBox="0 0 78.03 62.93"><defs><style>.cls-1{fill:none;stroke:#000;stroke-linecap:round;stroke-linejoin:round;stroke-width:2.13px}</style></defs><path class="cls-1" d="m77.91 29.14-7.82 4.72a1.47 1.47 0 0 1-.77.22h-6a1.47 1.47 0 0 0-.36 0l-9.85 2.46a1.49 1.49 0 0 1-.36.05h-9.38l-2.72 19.95a1.49 1.49 0 0 0 1.08 1.64L51.85 61a1.49 1.49 0 0 1 1.09 1.43v11.2A6.38 6.38 0 0 1 46.56 80h-20a6.38 6.38 0 0 1-6.38-6.38V61.8a1.49 1.49 0 0 1 .31-.91l2.12-2.75a1.51 1.51 0 0 0 .3-.7l2.85-20.81h-4.29a6.38 6.38 0 0 1-6.37-6.38v-4.68a6.38 6.38 0 0 1 6.37-6.38h31.32a1.53 1.53 0 0 1 .3 0l9.91 2.1a1.53 1.53 0 0 0 .3 0h6a1.45 1.45 0 0 1 .81.24l7.83 5.06a1.48 1.48 0 0 1-.03 2.55Z" transform="translate(-14.03 -18.13)"/><path class="cls-1" d="M65.06 9.78h11.91M11.7 18.5h17.64M8.93 39.34h17.65M6.38 43.59H38.7M49.33 3.19v12.12M55.28 3.19v12.55"/></svg>