<svg id="Слой_1" data-name="Слой 1" xmlns="http://www.w3.org/2000/svg" viewBox="0 0 78.03 62.93"><defs><style>.cls-1{fill:none;stroke:#000;stroke-linecap:round;stroke-linejoin:round;stroke-width:2.13px;}</style></defs><path class="cls-1" d="M77.91,29.14l-7.82,4.72a1.47,1.47,0,0,1-.77.22h-6a1.47,1.47,0,0,0-.36,0l-9.85,2.46a1.49,1.49,0,0,1-.36.05H43.37L40.65,56.54a1.49,1.49,0,0,0,1.08,1.64L51.85,61a1.49,1.49,0,0,1,1.09,1.43v11.2A6.38,6.38,0,0,1,46.56,80h-20a6.38,6.38,0,0,1-6.38-6.38V61.8a1.49,1.49,0,0,1,.31-.91l2.12-2.75a1.51,1.51,0,0,0,.3-.7l2.85-20.81H21.47a6.38,6.38,0,0,1-6.37-6.38V25.57a6.38,6.38,0,0,1,6.37-6.38H52.79a1.53,1.53,0,0,1,.3,0L63,21.29a1.53,1.53,0,0,0,.3,0h6a1.45,1.45,0,0,1,.81.24l7.83,5.06A1.48,1.48,0,0,1,77.91,29.14Z" transform="translate(-14.03 -18.13)"/><line class="cls-1" x1="65.06" y1="9.78" x2="76.97" y2="9.78"/><line class="cls-1" x1="11.7" y1="18.5" x2="29.34" y2="18.5"/><line class="cls-1" x1="8.93" y1="39.34" x2="26.58" y2="39.34"/><line class="cls-1" x1="6.38" y1="43.59" x2="38.7" y2="43.59"/><line class="cls-1" x1="49.33" y1="3.19" x2="49.33" y2="15.31"/><line class="cls-1" x1="55.28" y1="3.19" x2="55.28" y2="15.74"/></svg>