<svg id="Слой_1" data-name="Слой 1" xmlns="http://www.w3.org/2000/svg" viewBox="0 0 72.22 71.95"><defs><style>.cls-1,.cls-2{fill:none;stroke:#000;stroke-width:2.11px;}.cls-1{stroke-miterlimit:10;}.cls-2{stroke-linecap:round;stroke-linejoin:round;}</style></defs><path class="cls-1" d="M78.07,73.85a5.89,5.89,0,0,1-5.89,5.89H29a5.89,5.89,0,0,1-5.89-5.89l2.24-43.16H25.3a5.89,5.89,0,0,1-5.89-5.88L18.47,15h51a5.89,5.89,0,0,1,5.88,5.89L77.15,56.1Z" transform="translate(-17.31 -13.94)"/><path class="cls-1" d="M88.47,52.36a3.74,3.74,0,0,1-3.74,3.74H77.15L75.32,20.89A5.89,5.89,0,0,0,69.44,15h12a3.74,3.74,0,0,1,3.74,3.74Z" transform="translate(-17.31 -13.94)"/><line class="cls-2" x1="6.13" y1="70.89" x2="60.86" y2="70.89"/></svg>