<svg id="Слой_1" data-name="Слой 1" xmlns="http://www.w3.org/2000/svg" viewBox="0 0 72.22 71.95"><defs><style>.cls-1{fill:none;stroke:#000;stroke-width:2.11px;stroke-miterlimit:10}</style></defs><path class="cls-1" d="M78.07 73.85a5.89 5.89 0 0 1-5.89 5.89H29a5.89 5.89 0 0 1-5.89-5.89l2.24-43.16h-.05a5.89 5.89 0 0 1-5.89-5.88L18.47 15h51a5.89 5.89 0 0 1 5.88 5.89l1.8 35.21Z" transform="translate(-17.31 -13.94)"/><path class="cls-1" d="M88.47 52.36a3.74 3.74 0 0 1-3.74 3.74h-7.58l-1.83-35.21A5.89 5.89 0 0 0 69.44 15h12a3.74 3.74 0 0 1 3.74 3.74Z" transform="translate(-17.31 -13.94)"/><path style="stroke-linecap:round;stroke-linejoin:round;fill:none;stroke:#000;stroke-width:2.11px" d="M6.13 70.89h54.73"/></svg>