<svg id="Слой_1" data-name="Слой 1" xmlns="http://www.w3.org/2000/svg" viewBox="0 0 80.04 70.58"><defs><style>.cls-1,.cls-2{fill:none;stroke:#000;stroke-width:2.55px;}.cls-1{stroke-linecap:round;stroke-linejoin:round;}.cls-2{stroke-miterlimit:10;}</style></defs><path class="cls-1" d="M91.36,86.76c.09-1,.13-2.07.13-3.12V58.24a38.24,38.24,0,1,0-76.47,0v25.4q0,1.58.12,3.12" transform="translate(-13.23 -18.73)"/><path class="cls-2" d="M28,88H16.29a1.77,1.77,0,0,1-1.78-1.78V59a1.78,1.78,0,0,1,1.78-1.78H28A1.78,1.78,0,0,1,29.8,59V86.25A1.78,1.78,0,0,1,28,88Z" transform="translate(-13.23 -18.73)"/><path class="cls-2" d="M90.22,88H78.49a1.77,1.77,0,0,1-1.78-1.78V59a1.78,1.78,0,0,1,1.78-1.78H90.22A1.78,1.78,0,0,1,92,59V86.25A1.78,1.78,0,0,1,90.22,88Z" transform="translate(-13.23 -18.73)"/></svg>