<svg id="Слой_1" data-name="Слой 1" xmlns="http://www.w3.org/2000/svg" viewBox="0 0 75.93 79.87"><defs><style>.cls-1{fill:none;stroke:#000;stroke-linecap:round;stroke-linejoin:round;stroke-width:2.07px;}</style></defs><path class="cls-1" d="M87.28,43V76.14a6.22,6.22,0,0,1-6.23,6.22H65.49V65.56l-30.28-.1v16.9H19.65a6.22,6.22,0,0,1-6.23-6.22V43a6.23,6.23,0,0,1,6.23-6.23h61.4A6.23,6.23,0,0,1,87.28,43Z" transform="translate(-12.39 -9.96)"/><line class="cls-1" x1="21.47" y1="54.87" x2="54.66" y2="54.87"/><polygon class="cls-1" points="53.11 55.6 53.11 78.83 22.82 78.83 22.82 55.49 53.11 55.6"/><rect class="cls-1" x="22.82" y="1.04" width="30.29" height="25.72"/><line class="cls-1" x1="27.69" y1="61.72" x2="48.44" y2="61.72"/><line class="cls-1" x1="27.8" y1="68.67" x2="48.54" y2="68.67"/></svg>