<svg id="Слой_1" data-name="Слой 1" xmlns="http://www.w3.org/2000/svg" viewBox="0 0 89.11 66.09"><defs><style>.cls-1{fill:none;stroke:#000;stroke-linecap:round;stroke-linejoin:round;stroke-width:2.01px;}</style></defs><path class="cls-1" d="M83.87,82.08H16.12a1.28,1.28,0,0,1-1.27-1.47L20,44.08A30.31,30.31,0,0,1,50,18h0A30.31,30.31,0,0,1,80,44.08l5.14,36.53A1.29,1.29,0,0,1,83.87,82.08Z" transform="translate(-5.44 -17)"/><path class="cls-1" d="M70,76.19H30a.76.76,0,0,1-.75-.87l3-21.62A17.92,17.92,0,0,1,50,38.28h0A17.92,17.92,0,0,1,67.75,53.7l3,21.62A.76.76,0,0,1,70,76.19Z" transform="translate(-5.44 -17)"/><line class="cls-1" x1="44.56" y1="21.26" x2="44.56" y2="59.2"/><line class="cls-1" x1="73.74" y1="23.01" x2="88.11" y2="65"/><line class="cls-1" x1="15.37" y1="23.01" x2="1" y2="65"/></svg>