<svg id="Слой_1" data-name="Слой 1" xmlns="http://www.w3.org/2000/svg" viewBox="0 0 68.93 68.93"><defs><style>.cls-1{fill:none;stroke:#000;stroke-linecap:round;stroke-linejoin:round;stroke-width:1.93px;}</style></defs><path class="cls-1" d="M50.1,50.5l-.45.15,0,0a.54.54,0,0,1,0-.11h.44Z" transform="translate(-15.04 -16.03)"/><path class="cls-1" d="M50.1,50.5l-.45.15,0,0a.54.54,0,0,1,0-.11h.44Z" transform="translate(-15.04 -16.03)"/><path class="cls-1" d="M83,50.5a33.26,33.26,0,0,1-3.57,15.06A36.5,36.5,0,0,0,50.1,50.5h-.44a.47.47,0,0,0,0,.1l-.1-.1A36.51,36.51,0,0,1,40,18.37,33.52,33.52,0,0,1,83,50.5Z" transform="translate(-15.04 -16.03)"/><path class="cls-1" d="M49.61,50.61A36.6,36.6,0,0,1,22.77,70.69,33.5,33.5,0,0,1,40,18.37,36.5,36.5,0,0,0,49.51,50.5Z" transform="translate(-15.04 -16.03)"/><path class="cls-1" d="M79.43,65.56A33.34,33.34,0,0,1,30.94,78.34a34.87,34.87,0,0,1-8.17-7.65A36.59,36.59,0,0,0,49.61,50.6l0,0,.45-.14A36.5,36.5,0,0,1,79.43,65.56Z" transform="translate(-15.04 -16.03)"/><path class="cls-1" d="M50.1,50.5l-.45.15,0,0a.54.54,0,0,1,0-.11h.44Z" transform="translate(-15.04 -16.03)"/><path class="cls-1" d="M29.58,77.38a35.38,35.38,0,0,0,25.76-6A45.32,45.32,0,0,0,68.58,55.71" transform="translate(-15.04 -16.03)"/><path class="cls-1" d="M83,53.13a35.4,35.4,0,0,0-20.4-18A45.93,45.93,0,0,0,40.41,34" transform="translate(-15.04 -16.03)"/><path class="cls-1" d="M27.12,25.57a34.88,34.88,0,0,0-2,20.39A46.14,46.14,0,0,0,35.43,66" transform="translate(-15.04 -16.03)"/></svg>