<svg id="Слой_1" data-name="Слой 1" xmlns="http://www.w3.org/2000/svg" viewBox="0 0 79.78 56.27"><defs><style>.cls-1,.cls-2{fill:none;stroke:#000;stroke-width:2.04px;}.cls-1{stroke-miterlimit:10;}.cls-2{stroke-linecap:round;stroke-linejoin:round;}</style></defs><path class="cls-1" d="M91,61.67V29.11A6.1,6.1,0,0,0,84.89,23H19.36a6.1,6.1,0,0,0-6.1,6.11V61.67a6.1,6.1,0,0,0,6.1,6.1H84.89A6.1,6.1,0,0,0,91,61.67Z" transform="translate(-12.24 -21.98)"/><path class="cls-1" d="M47,39V51.73A1.42,1.42,0,0,0,49.18,53l11-6.34a1.43,1.43,0,0,0,0-2.47l-11-6.34A1.42,1.42,0,0,0,47,39Z" transform="translate(-12.24 -21.98)"/><line class="cls-2" x1="9.87" y1="55.26" x2="70.11" y2="55.26"/><rect class="cls-2" x="36.23" y="46" width="7.73" height="9.16"/></svg>