<svg id="Слой_1" data-name="Слой 1" xmlns="http://www.w3.org/2000/svg" viewBox="0 0 72.58 72.19"><defs><style>.cls-1{fill:none;stroke:#000;stroke-linecap:round;stroke-linejoin:round;stroke-width:1.95px;}</style></defs><path class="cls-1" d="M59.26,46.75a9.53,9.53,0,0,0-17.83,0,9.38,9.38,0,0,0-.62,3.37,9.54,9.54,0,0,0,19.07,0A9.38,9.38,0,0,0,59.26,46.75Zm-9,3.47,0-.08h0v0h0l0-.09v0h0l0,.08Z" transform="translate(-14.06 -14.03)"/><path class="cls-1" d="M59.88,50.12a9.38,9.38,0,0,0-.62-3.37l18-6.9A28.83,28.83,0,0,0,60.6,23.17l-6.9,18a9.64,9.64,0,0,0-6.88.07L40,23.31l-.12,0A28.82,28.82,0,0,0,23.59,39.86s0,0,0,0l17.86,6.84a9.38,9.38,0,0,0-.62,3.37,9.48,9.48,0,0,0,.62,3.38L23.64,60.31A28.82,28.82,0,0,0,39.83,76.7l.18.07L46.82,59a9.4,9.4,0,0,0,3.53.68,9.53,9.53,0,0,0,3.35-.61L60.54,76.9h0A28.8,28.8,0,0,0,77.22,60.37l-18-6.87A9.48,9.48,0,0,0,59.88,50.12Zm-9.73.2-.1-.26,0,0L50,50,50,50l0,0,.1-.26.11.29v0h0l0,.07v0h0Z" transform="translate(-14.06 -14.03)"/><polygon class="cls-1" points="36.23 36.09 36.19 36.19 36.16 36.11 36.15 36.11 36.15 36.09 36.15 36.08 36.16 36.08 36.19 36 36.23 36.09"/><polygon class="cls-1" points="36.16 36.11 36.15 36.11 36.15 36.09 36.16 36.08 36.19 36 36.23 36.09 36.19 36.19 36.16 36.11"/><path class="cls-1" d="M55.24,85.24h-10a5.84,5.84,0,0,1-5.45-7.92l.21-.55L46.82,59a9.4,9.4,0,0,0,3.53.68,9.53,9.53,0,0,0,3.35-.61L60.54,76.9l.15.42A5.83,5.83,0,0,1,55.24,85.24Z" transform="translate(-14.06 -14.03)"/><polygon class="cls-1" points="36.19 36 36.23 36.09 36.19 36.19 36.16 36.11 36.15 36.09 36.15 36.08 36.16 36.08 36.19 36"/><path class="cls-1" d="M60.69,22.92l-.09.25-6.9,18a9.64,9.64,0,0,0-6.88.07L40,23.31l-.15-.39A5.84,5.84,0,0,1,45.25,15h10A5.83,5.83,0,0,1,60.69,22.92Z" transform="translate(-14.06 -14.03)"/><path class="cls-1" d="M85.66,45.13v10a5.84,5.84,0,0,1-7.92,5.45l-.52-.2-18-6.87a9.48,9.48,0,0,0,.62-3.38,9.38,9.38,0,0,0-.62-3.37l18-6.9.45-.18A5.84,5.84,0,0,1,85.66,45.13Z" transform="translate(-14.06 -14.03)"/><path class="cls-1" d="M40.81,50.12a9.48,9.48,0,0,0,.62,3.38L23.64,60.31l-.69.26A5.84,5.84,0,0,1,15,55.12v-10A5.84,5.84,0,0,1,23,39.67l.62.24,17.86,6.84A9.38,9.38,0,0,0,40.81,50.12Z" transform="translate(-14.06 -14.03)"/><polygon class="cls-1" points="36.19 36.09 36.16 36.11 36.15 36.11 36.15 36.09 36.15 36.08 36.16 36.08 36.19 36.09"/></svg>