<svg id="Слой_1" data-name="Слой 1" xmlns="http://www.w3.org/2000/svg" viewBox="0 0 72.58 72.19"><defs><style>.cls-1{fill:none;stroke:#000;stroke-linecap:round;stroke-linejoin:round;stroke-width:1.95px}</style></defs><path class="cls-1" d="M59.26 46.75a9.53 9.53 0 0 0-17.83 0 9.38 9.38 0 0 0-.62 3.37 9.54 9.54 0 0 0 19.07 0 9.38 9.38 0 0 0-.62-3.37Zm-9 3.47v-.08h0v0h0v-.09 0h0v.08Z" transform="translate(-14.06 -14.03)"/><path class="cls-1" d="M59.88 50.12a9.38 9.38 0 0 0-.62-3.37l18-6.9A28.83 28.83 0 0 0 60.6 23.17l-6.9 18a9.64 9.64 0 0 0-6.88.07L40 23.31h-.12a28.82 28.82 0 0 0-16.29 16.55s0 0 0 0l17.86 6.84a9.38 9.38 0 0 0-.62 3.37 9.48 9.48 0 0 0 .62 3.38l-17.81 6.86A28.82 28.82 0 0 0 39.83 76.7l.18.07L46.82 59a9.4 9.4 0 0 0 3.53.68 9.53 9.53 0 0 0 3.35-.61l6.84 17.83h0a28.8 28.8 0 0 0 16.68-16.53l-18-6.87a9.48 9.48 0 0 0 .66-3.38Zm-9.73.2-.1-.26h0L50 50h0l.1-.26.11.29v0h0v.07h0Z" transform="translate(-14.06 -14.03)"/><path class="cls-1" d="m36.23 36.09-.04.1-.03-.08h-.01v-.03h.01l.03-.08.04.09z"/><path class="cls-1" d="M36.16 36.11h-.01v-.02l.01-.01.03-.08.04.09-.04.1-.03-.08z"/><path class="cls-1" d="M55.24 85.24h-10a5.84 5.84 0 0 1-5.45-7.92l.21-.55L46.82 59a9.4 9.4 0 0 0 3.53.68 9.53 9.53 0 0 0 3.35-.61l6.84 17.83.15.42a5.83 5.83 0 0 1-5.45 7.92Z" transform="translate(-14.06 -14.03)"/><path class="cls-1" d="m36.19 36 .04.09-.04.1-.03-.08-.01-.02v-.01h.01l.03-.08z"/><path class="cls-1" d="m60.69 22.92-.09.25-6.9 18a9.64 9.64 0 0 0-6.88.07L40 23.31l-.15-.39a5.84 5.84 0 0 1 5.4-7.92h10a5.83 5.83 0 0 1 5.44 7.92ZM85.66 45.13v10a5.84 5.84 0 0 1-7.92 5.45l-.52-.2-18-6.87a9.48 9.48 0 0 0 .62-3.38 9.38 9.38 0 0 0-.62-3.37l18-6.9.45-.18a5.84 5.84 0 0 1 7.99 5.45ZM40.81 50.12a9.48 9.48 0 0 0 .62 3.38l-17.79 6.81-.69.26A5.84 5.84 0 0 1 15 55.12v-10a5.84 5.84 0 0 1 8-5.45l.62.24 17.86 6.84a9.38 9.38 0 0 0-.67 3.37Z" transform="translate(-14.06 -14.03)"/><path class="cls-1" d="m36.19 36.09-.03.02h-.01v-.03h.01l.03.01z"/></svg>