<svg id="Слой_1" data-name="Слой 1" xmlns="http://www.w3.org/2000/svg" viewBox="0 0 67.24 71.84"><defs><style>.cls-1{fill:none;stroke:#000;stroke-linecap:round;stroke-linejoin:round;stroke-width:1.84px}</style></defs><path class="cls-1" d="M50 15v28l-8-27.07a34.32 34.32 0 0 1 8-.93Z" transform="translate(-16.39 -14.08)"/><path class="cls-1" d="M82.72 45.87a30.29 30.29 0 0 1-13.07 24.68 8.26 8.26 0 0 0-13.74 5.68h0a35 35 0 0 1-11.79 0 8.27 8.27 0 0 0-13.75-5.68A31.67 31.67 0 0 1 20.93 60a29.39 29.39 0 0 1-.06-28.15A32.46 32.46 0 0 1 42 15.93L50 43v1h32.66c.04.64.06 1.25.06 1.87Z" transform="translate(-16.39 -14.08)"/><path class="cls-1" d="M44.13 76.73a8.18 8.18 0 1 1 0-.5v.5ZM72.43 76.73a8.27 8.27 0 0 1-16.54 0v-.5h0a8.27 8.27 0 0 1 16.52.5Z" transform="translate(-16.39 -14.08)"/></svg>