<svg id="Слой_1" data-name="Слой 1" xmlns="http://www.w3.org/2000/svg" viewBox="0 0 75.93 79.87"><defs><style>.cls-1{fill:none;stroke:#000;stroke-linecap:round;stroke-linejoin:round;stroke-width:2.07px}</style></defs><path class="cls-1" d="M87.28 43v33.14a6.22 6.22 0 0 1-6.23 6.22H65.49v-16.8l-30.28-.1v16.9H19.65a6.22 6.22 0 0 1-6.23-6.22V43a6.23 6.23 0 0 1 6.23-6.23h61.4A6.23 6.23 0 0 1 87.28 43Z" transform="translate(-12.39 -9.96)"/><path class="cls-1" d="M21.47 54.87h33.19M53.11 55.6v23.23H22.82V55.49l30.29.11zM22.82 1.04h30.29v25.72H22.82zM27.69 61.72h20.75M27.8 68.67h20.74"/></svg>