<svg id="Слой_1" data-name="Слой 1" xmlns="http://www.w3.org/2000/svg" viewBox="0 0 89.11 66.09"><defs><style>.cls-1{fill:none;stroke:#000;stroke-linecap:round;stroke-linejoin:round;stroke-width:2.01px}</style></defs><path class="cls-1" d="M83.87 82.08H16.12a1.28 1.28 0 0 1-1.27-1.47L20 44.08A30.31 30.31 0 0 1 50 18h0a30.31 30.31 0 0 1 30 26.08l5.14 36.53a1.29 1.29 0 0 1-1.27 1.47Z" transform="translate(-5.44 -17)"/><path class="cls-1" d="M70 76.19H30a.76.76 0 0 1-.75-.87l3-21.62A17.92 17.92 0 0 1 50 38.28h0A17.92 17.92 0 0 1 67.75 53.7l3 21.62a.76.76 0 0 1-.75.87Z" transform="translate(-5.44 -17)"/><path class="cls-1" d="M44.56 21.26V59.2M73.74 23.01 88.11 65M15.37 23.01 1 65"/></svg>