<svg id="Слой_1" data-name="Слой 1" xmlns="http://www.w3.org/2000/svg" viewBox="0 0 67.24 72.56"><defs><style>.cls-1{fill:none;stroke:#000;stroke-linecap:round;stroke-linejoin:round;stroke-width:1.91px}</style></defs><path class="cls-1" d="M83 45.09 54.59 16.68a5.71 5.71 0 0 0-8.09 0l-6.27 6.26a5.73 5.73 0 0 0 0 8.09l28.42 28.41a5.71 5.71 0 0 0 8.09 0L83 53.18a5.73 5.73 0 0 0 0-8.09Z" transform="translate(-18.38 -14.05)"/><path class="cls-1" d="m43.42 19.75-2.3-2.19a3.67 3.67 0 0 0-5.17 0L28.5 25a3.67 3.67 0 0 0 0 5.17l20.57 20.58a3.65 3.65 0 0 1 0 5.17h0" transform="translate(-18.38 -14.05)"/><path class="cls-1" d="m25.53 85.26-5.8-5.8a1.34 1.34 0 0 1 0-1.89L44.29 53a1.33 1.33 0 0 1 1.88 0l5.8 5.8a1.33 1.33 0 0 1 0 1.88L27.41 85.26a1.33 1.33 0 0 1-1.88 0Z" transform="translate(-18.38 -14.05)"/></svg>