<svg id="Слой_1" data-name="Слой 1" xmlns="http://www.w3.org/2000/svg" viewBox="0 0 68.93 68.93"><defs><style>.cls-1{fill:none;stroke:#000;stroke-linecap:round;stroke-linejoin:round;stroke-width:1.93px}</style></defs><path class="cls-1" d="m50.1 50.5-.45.15h0a.54.54 0 0 1 0-.11h.44Z" transform="translate(-15.04 -16.03)"/><path class="cls-1" d="m50.1 50.5-.45.15h0a.54.54 0 0 1 0-.11h.44Z" transform="translate(-15.04 -16.03)"/><path class="cls-1" d="M83 50.5a33.26 33.26 0 0 1-3.57 15.06A36.5 36.5 0 0 0 50.1 50.5h-.44a.47.47 0 0 0 0 .1l-.1-.1A36.51 36.51 0 0 1 40 18.37 33.52 33.52 0 0 1 83 50.5Z" transform="translate(-15.04 -16.03)"/><path class="cls-1" d="M49.61 50.61a36.6 36.6 0 0 1-26.84 20.08A33.5 33.5 0 0 1 40 18.37a36.5 36.5 0 0 0 9.51 32.13Z" transform="translate(-15.04 -16.03)"/><path class="cls-1" d="M79.43 65.56a33.34 33.34 0 0 1-48.49 12.78 34.87 34.87 0 0 1-8.17-7.65A36.59 36.59 0 0 0 49.61 50.6h0l.45-.14a36.5 36.5 0 0 1 29.37 15.1Z" transform="translate(-15.04 -16.03)"/><path class="cls-1" d="m50.1 50.5-.45.15h0a.54.54 0 0 1 0-.11h.44ZM29.58 77.38a35.38 35.38 0 0 0 25.76-6 45.32 45.32 0 0 0 13.24-15.67M83 53.13a35.4 35.4 0 0 0-20.4-18A45.93 45.93 0 0 0 40.41 34M27.12 25.57a34.88 34.88 0 0 0-2 20.39A46.14 46.14 0 0 0 35.43 66" transform="translate(-15.04 -16.03)"/></svg>