<svg id="Слой_1" data-name="Слой 1" xmlns="http://www.w3.org/2000/svg" viewBox="0 0 79.78 56.27"><defs><style>.cls-1,.cls-2{fill:none;stroke:#000;stroke-width:2.04px}.cls-1{stroke-miterlimit:10}.cls-2{stroke-linecap:round;stroke-linejoin:round}</style></defs><path class="cls-1" d="M91 61.67V29.11A6.1 6.1 0 0 0 84.89 23H19.36a6.1 6.1 0 0 0-6.1 6.11v32.56a6.1 6.1 0 0 0 6.1 6.1h65.53a6.1 6.1 0 0 0 6.11-6.1Z" transform="translate(-12.24 -21.98)"/><path class="cls-1" d="M47 39v12.73A1.42 1.42 0 0 0 49.18 53l11-6.34a1.43 1.43 0 0 0 0-2.47l-11-6.34A1.42 1.42 0 0 0 47 39Z" transform="translate(-12.24 -21.98)"/><path class="cls-2" d="M9.87 55.26h60.24M36.23 46h7.73v9.16h-7.73z"/></svg>