<svg id="Слой_1" data-name="Слой 1" xmlns="http://www.w3.org/2000/svg" viewBox="0 0 1093.68 219.02"><defs><style>.cls-1{fill:#fff}</style></defs><path class="cls-1" d="M1479.92 661.36c-2.62-.25-5.25-.45-7.86-.75a59.94 59.94 0 0 1-20.77-5.82c-9.32-4.77-15.67-12-18-22.39-3.4-15.46 3.52-29.55 17.79-36.33l1.68-.81a20.94 20.94 0 0 1-4-8.55c-1.76-8.94.77-16.5 7.5-22.64 1.52-1.39 1.52-1.37 0-2.67a38.27 38.27 0 0 1-14-26.3c-1-9.94.59-19.47 5.7-28.19 5.36-9.15 13.58-14.59 23.55-17.55a68 68 0 0 1 26.49-2.07 59.94 59.94 0 0 1 8.62 1.47 6.63 6.63 0 0 0 1.55.09h42.24a2.65 2.65 0 0 1 1.52.18v21.6c-1.06.15-2.13.33-3.2.46l-13.91 1.75c-.52.07-1 .07-.66.91a37.69 37.69 0 0 1 3.24 14c.46 10.27-1.79 19.78-8.3 28-5.64 7.1-13.19 11.23-21.78 13.65a66.6 66.6 0 0 1-22.23 1.93 5.52 5.52 0 0 0-4 1.29c-1.62 1.32-3.13 2.73-3.59 4.81-.58 2.6-.12 3 2 3.61a26.88 26.88 0 0 0 7.25.79c7.64.06 15.28 0 22.92.07a52.6 52.6 0 0 1 19.56 3.62c8.54 3.5 15.11 9.05 18.54 17.84a39.11 39.11 0 0 1 2.48 16.35c-.51 10.38-4.14 19.38-11.9 26.51a47.09 47.09 0 0 1-15.1 9.11 92.15 92.15 0 0 1-25.93 5.52 60.87 60.87 0 0 0-6.32.48Zm13.58-51.8h-1.56c-5.43.13-10.87-.34-16.29.43-3.55.5-6.83 1.58-9.42 4.25-2.88 3-3.48 6.64-3.35 10.53a9.14 9.14 0 0 0 5.29 8.48 27.52 27.52 0 0 0 9.76 2.68 92.39 92.39 0 0 0 19-.29 42.41 42.41 0 0 0 14.53-3.81c6.66-3.33 9.24-8.3 8.27-15.68a5.6 5.6 0 0 0-4.2-5.1 30.17 30.17 0 0 0-5.64-1.07c-5.43-.51-10.89-.41-16.39-.42Zm12.92-79.56a36.46 36.46 0 0 0-.57-6.92c-1.22-6.49-4.64-10.1-10.89-11.36a28.7 28.7 0 0 0-8.48-.31c-6.52.63-10.82 4.09-12.48 10.31a32 32 0 0 0-.29 15.44 12.25 12.25 0 0 0 9.65 9.86 27.42 27.42 0 0 0 13.17 0 11.48 11.48 0 0 0 8.93-8.73 31 31 0 0 0 .96-8.29ZM458.24 489.76l8.76-.06h20.76c1.26 0 1.5.37 1.48 1.54-.07 4.28 0 8.56 0 12.83.5.14.57-.28.73-.5 8.07-10.64 18.89-16.06 32.11-16.93 12.83-.85 24.76 1.69 35.11 9.71a53.93 53.93 0 0 1 17.45 24.21c4.29 11.39 5.31 23.24 4.68 35.28-.51 10-2.49 19.58-7.06 28.53-5.66 11.09-13.81 19.63-25.57 24.3-7.93 3.16-16.21 3.86-24.64 3.11a42.61 42.61 0 0 1-20.62-7.09 41.24 41.24 0 0 1-9.28-8.8l-1.26-1.62v55.69c0 1.17-.31 1.44-1.45 1.44h-30c-.4 0-.8 0-1.2-.06Zm31.43 59.73a56.76 56.76 0 0 0 2.39 17c3.27 10.09 10.78 19.62 25.63 19.88 10.79.19 18.9-4.3 24.08-13.82 3.41-6.25 4.61-13.06 4.82-20.09.23-7.65-.41-15.19-3.39-22.35-5.63-13.53-16.73-19-30.26-16.9-9.15 1.43-15.29 6.83-19.17 15-3.2 6.79-4 14.01-4.1 21.28ZM879.4 531.9q3.4-3.93 6.83-7.84 14.91-17 29.8-34a3.15 3.15 0 0 1 2.64-1.22c11.76.05 23.52 0 35.28 0h1.58c-.47.54-.76.89-1.07 1.22q-23.64 25.94-47.31 51.85a1.44 1.44 0 0 0-.1 2.26q24.57 33 49.06 66.05c.24.31.46.64.7 1-.36.38-.78.2-1.14.2h-34.56a2.1 2.1 0 0 1-1.93-1.05q-16.77-23.31-33.57-46.61c-.93-1.29-.93-1.3-2.2-.4s-2.75 1.46-3.36 2.6-.18 2.73-.18 4.13v40c0 1.11-.31 1.37-1.39 1.37q-14.28-.08-28.56 0c-1.09 0-1.31-.32-1.31-1.34v-35a2.86 2.86 0 0 1 .55-1.77 49.72 49.72 0 0 0 9.16-25.49 59.71 59.71 0 0 0-4.3-28.64 41.52 41.52 0 0 0-4.87-8.64 2.64 2.64 0 0 1-.54-1.66v-65.27c0-.92.23-1.24 1.2-1.24q14.46.06 28.91 0c.92 0 1.14.3 1.14 1.18v76.43c0 3-.35 6.06-.54 9.09-.06.92-.1 1.83-.15 2.75ZM1227.11 601.29A42.15 42.15 0 0 1 1218 608a44.61 44.61 0 0 1-17 5 64 64 0 0 1-20.52-.86c-16.45-3.69-27-15.79-28.36-32.58-.56-6.83-.07-13.5 2.6-19.88 3.77-9.05 10.57-15.05 19.32-19.07a74.72 74.72 0 0 1 21.69-5.74c8.58-1.12 17.23-1.12 25.85-1.45 1.72-.06 1.72 0 1.71-1.8a32.91 32.91 0 0 0-.79-7.85c-1.48-6-4.77-9.11-10.92-10a51.21 51.21 0 0 0-25.55 3 150.42 150.42 0 0 0-14.41 6.22c-.82.4-1.17.33-1.6-.52q-5.45-10.93-11-21.84c-.28-.53-.48-.86.29-1.26a110.07 110.07 0 0 1 30.69-11.14 89.4 89.4 0 0 1 24.61-.93 61.82 61.82 0 0 1 15.92 3.25c12.85 4.72 20.22 14 22.76 27.35a64.43 64.43 0 0 1 1 12.17v79.91c0 1.1-.19 1.48-1.4 1.47q-11-.09-22 0c-1 0-1.36-.33-1.59-1.26-.59-2.9-1.38-5.78-2.19-8.9Zm-4.07-39.6c0-1.12-.06-2.25 0-3.36s-.32-1.2-1.23-1.15c-6.07.35-12.15.38-18.18 1.23A37.88 37.88 0 0 0 1191 562a11.84 11.84 0 0 0-6.5 8.29 21.26 21.26 0 0 0-.47 6c.48 7 3.58 10.21 10.52 11.07a30.63 30.63 0 0 0 9.07-.31c8.91-1.53 15.1-6.34 17.95-15.09a34.35 34.35 0 0 0 1.43-10.27Z" transform="translate(-458.24 -442.34)"/><path class="cls-1" d="M1029.91 601.3a41.94 41.94 0 0 1-10.75 7.54 46.73 46.73 0 0 1-16.73 4.29 64.33 64.33 0 0 1-16.86-.5c-12.5-2.27-22.16-8.42-27.52-20.32-3.07-6.83-3.84-14.06-3.24-21.46a34.33 34.33 0 0 1 7.58-19.46c5-6.13 11.55-10 18.91-12.61a87 87 0 0 1 21.55-4.38c7.29-.65 14.62-.73 21.93-.95 1.08 0 1.34-.36 1.31-1.39a38.81 38.81 0 0 0-.86-8.33c-1.5-6-4.82-9.08-11-10a51.36 51.36 0 0 0-25.56 3 150.25 150.25 0 0 0-14.4 6.22c-.78.38-1.1.34-1.52-.49q-5.44-10.94-11-21.83c-.31-.61-.42-1 .36-1.37a111.55 111.55 0 0 1 29.36-10.8 86.69 86.69 0 0 1 22.68-1.42 68.52 68.52 0 0 1 18.24 3.18c13.76 4.67 21.41 14.46 23.86 28.57a62.87 62.87 0 0 1 .82 10.87v80.16c0 1.89.12 1.58-1.61 1.59h-21.71c-1 0-1.35-.31-1.58-1.26-.64-2.86-1.45-5.74-2.26-8.85Zm-10.86-43.85c-3.6.17-7.19.29-10.77.71-1.15.14-2.3.29-3.44.48a34.34 34.34 0 0 0-11.49 3.58 11.59 11.59 0 0 0-5.58 6.47 21.77 21.77 0 0 0-.83 8.42c.31 5.12 2.84 8.27 7.81 9.64a26.68 26.68 0 0 0 11.66.2c8.55-1.45 14.69-5.92 17.7-14.27 1.73-4.8 1.77-9.79 1.74-14.79 0-.75-.42-.73-.93-.7ZM1431 550.13c0 10.94-1.55 21.6-6.07 31.66-7.58 16.86-20.7 26.74-38.64 30.33-11.74 2.34-23.41 1.89-34.75-2.21-15.76-5.7-26.26-16.74-32.18-32.28a77.1 77.1 0 0 1-4.64-28.34c.07-10 1.42-19.85 5.3-29.18 7.42-17.86 20.76-28.46 39.67-32 12-2.25 23.83-1.77 35.32 2.54 15.31 5.73 25.46 16.66 31.32 31.76 3.51 8.91 4.74 18.21 4.67 27.72Zm-32.07-.35c-.06-2.71-.11-5.71-.4-8.7a52.52 52.52 0 0 0-3.33-14.67c-2.66-6.54-7.26-10.82-14.23-12.31a38.12 38.12 0 0 0-16.77.09 18.17 18.17 0 0 0-12.9 10.33 39.63 39.63 0 0 0-2.94 8.72 86.12 86.12 0 0 0-1.36 23.16 53.27 53.27 0 0 0 3.48 17.07c2.65 6.58 7.12 11.12 14.21 12.68a37.19 37.19 0 0 0 17.11-.15 17.92 17.92 0 0 0 12-9.36 32.29 32.29 0 0 0 2.11-4.82c2.48-7.05 2.97-14.38 3.09-22.04ZM663.38 550.79c0-12.37 1.69-22.93 6.72-32.7 8.54-16.59 22.08-26.77 40.34-30.42a72.05 72.05 0 0 1 37 1.82c13.08 4.26 23 12.53 30.27 24.16a1.67 1.67 0 0 1 0 2A52.4 52.4 0 0 0 771 544.4a60.33 60.33 0 0 0 10.3 30.4 2.48 2.48 0 0 1 .25 2.72c-8.15 18.63-22.14 30.08-42.13 33.88-12.36 2.35-24.74 2-36.72-2.07-19.29-6.58-31.33-20.13-36.83-39.61a69.84 69.84 0 0 1-2.49-18.93Zm90.44-1.41a60.28 60.28 0 0 0-2.05-16.53c-2.9-10.1-9.95-20.77-25.11-21.63-9-.51-16.67 2.31-22.4 9.56a30.83 30.83 0 0 0-5.28 9.88 63.47 63.47 0 0 0-.6 35.82 29.3 29.3 0 0 0 8.87 15.08c8 7 17.33 7.89 27.11 5 7.65-2.29 12.35-8 15.47-15.06s3.94-14.64 3.99-22.12ZM1080.88 547.31v-24.83c0-1.05-.24-1.35-1.32-1.34-3.95.07-7.92 0-11.87.05-.89 0-1.16-.22-1.16-1.13q.06-12.6 0-25.19c0-1 .35-1.19 1.25-1.18h12.11c1.89 0 1.62.17 1.63-1.57v-32c0-1.08.28-1.32 1.32-1.31q14.16.06 28.32 0c1.16 0 1.34.38 1.34 1.41v32.16c0 1.13.33 1.38 1.4 1.37h23.88c1.06 0 1.34.28 1.33 1.34q-.06 12.42 0 24.84c0 1-.21 1.35-1.3 1.34-8-.05-16 0-24-.06-1.08 0-1.31.3-1.31 1.34q.06 21 0 42a30.92 30.92 0 0 0 .9 8c1.81 6.85 6.4 10.73 13.43 11.7a24.45 24.45 0 0 0 12.88-1.75c1.27-.51 1.3-.44 1.3 1v27.36c0 1.15-.25 1.63-1.48 1.85a59.73 59.73 0 0 1-32.57-2.63c-13.54-5.16-21.61-15.14-24.71-29.23a66.17 66.17 0 0 1-1.37-14.17c-.01-6.57 0-12.97 0-19.37ZM1301.8 527.09v82.9c0 1.12-.22 1.47-1.42 1.46q-14.39-.08-28.79 0c-1 0-1.25-.25-1.25-1.25V443.68c0-1.1.34-1.32 1.35-1.32q14.34.06 28.68 0c1.18 0 1.44.35 1.44 1.48q-.03 41.62-.01 83.25ZM622 511.11c.46-.23.52-.7.71-1.07 3.89-7.5 9.06-13.85 16.56-18a42.07 42.07 0 0 1 25.73-4.79c2.72.31 2.71.38 2.71 3.16v26.28c0 .95-.17 1.16-1.18 1a52.25 52.25 0 0 0-19.43-.48c-10 1.86-16.48 7.94-20.19 17.21a49.6 49.6 0 0 0-3.37 18.41q-.08 27.42 0 54.83c0 1.19-.32 1.43-1.45 1.42q-15.12-.06-30.24 0c-.93 0-1.2-.22-1.2-1.18v-117c0-1 .29-1.19 1.21-1.19h28.8c1 0 1.23.35 1.22 1.3v18.84a2.61 2.61 0 0 0 .12 1.26Z" transform="translate(-458.24 -442.34)"/><path d="M843.6 541.58a29.15 29.15 0 0 1-2.83 14.07 22.42 22.42 0 0 1-13.63 11.69 36.27 36.27 0 0 1-24.09-.44c-8.42-3.11-13.14-9.49-14.68-18.2A37.43 37.43 0 0 1 789 532c2.41-8.6 8.15-13.84 16.73-15.94a38.21 38.21 0 0 1 22.74.92c8.47 3.12 13 9.5 14.62 18.22a29.9 29.9 0 0 1 .51 6.38Z" transform="translate(-458.24 -442.34)" style="fill:#ff8500"/></svg>